<?xml version="1.0" encoding="utf-8" ?>
<svg xmlns="http://www.w3.org/2000/svg"
    xmlns:xlink="http://www.w3.org/1999/xlink" width="3000" height="3000" viewBox="0 0 3000 3000">
    <path fill="white" d="M0 0L3000 0L3000 3000L0 3000L0 0Z"/>
    <path fill="#030000" d="M1721.5 789.566C1761.2 755.397 1801.84 719.669 1842.05 686.325C1837.48 710.538 1834.84 742.314 1832.64 767.125C1825.57 846.902 1813.37 927.801 1807.31 1007.51L1845.01 1007.5L1923.2 1095.21C1917.56 1125.87 1913.31 1163.55 1908.97 1194.79L1883.7 1376.84L1854.85 1584.2C1849.83 1620.22 1843.31 1660.57 1839.53 1696.29C1807.8 1723.69 1767.1 1756.91 1737.16 1785.07L1515.82 1785.07C1482.42 1743.28 1447.24 1697.37 1413.11 1656.61C1419 1628.94 1423.81 1586.7 1427.95 1557.89L1453.67 1378.6C1447.04 1380.26 1336.33 1484.63 1322.09 1497.88C1317.45 1532.49 1310.72 1574.25 1307.41 1608.54L1304.75 1627.99L1300.73 1658.87C1276.88 1682.14 1239.79 1715.05 1218.77 1737.96L1205.27 1750.64L1178.35 1776.68L1176.7 1772.65C1181.43 1756.74 1184.87 1728.88 1188.47 1710.97L1125.57 1710.97C1129.08 1689.69 1132.49 1668.39 1135.77 1647.07C1117.32 1651.27 934.148 1816.73 901.951 1836.98C888.294 1845.57 854.946 1878.14 839.313 1888.41C822.606 1899.39 797.566 1926.68 779.561 1936.3C760.877 1955.24 728.074 1997.97 710.342 2019.76L582.52 2176.91C593.194 2101.62 612.022 2024.35 623.911 1949.01C628.427 1920.39 634.404 1885.91 641.228 1857.86L561.814 1857.86C518.537 1809.6 476.807 1758.95 433.351 1710.67C434.92 1692.92 440.269 1663.79 443.114 1645.08L463.114 1513.72L490.307 1335.49C492.521 1320.72 505.075 1221.04 511.633 1214.94L521.461 1216.76C523.379 1209.67 529.038 1138.14 529.817 1128.99C551.873 1113.87 579.848 1097.44 602.908 1083.17L606.264 1063.51C637.192 1037.46 667.564 1010.29 698.599 984.123L883.427 984.164C916.845 984.175 954.205 985.024 987.115 983.791C994.303 959.57 1003.51 917.949 1015.99 897.567C1019.41 891.982 1043.55 866.651 1049.84 859.903L1122.62 859.893C1124.61 846.172 1126.73 830.414 1129.75 816.874C1130.54 813.316 1131.3 813.754 1134.1 812.499C1134.94 811.173 1137.61 807.839 1139.08 807.793C1192.33 806.117 1248.55 806.995 1301.6 807.079C1325.74 786.844 1364.78 746.618 1388.34 723.877L1502.32 723.697C1518.18 723.671 1536.06 723.292 1551.95 724.307C1555.95 724.562 1555.66 725.826 1557.8 729.171C1561.27 733.012 1561.53 732.26 1561.14 738.784C1560.05 757.122 1554.59 777.072 1553.31 795.098L1654.35 751.761C1650.44 774.762 1644.85 814.83 1639.57 836.669C1639.97 838.843 1640.24 839.343 1640.98 841.427C1645.54 838.971 1663.63 822.249 1668.37 818.042C1688.45 800.097 1708.63 782.27 1728.92 764.562C1725.83 772.405 1721.4 781.424 1721.5 789.566Z"/>
    <path fill="#030000" d="M1062.13 871.218L1062.96 867.452C1068.53 864.85 1073.68 865.266 1076.01 871.528C1073.18 880.2 1067.6 920.39 1066.19 931.895C1062.57 961.433 1056.09 994.575 1053.19 1023.73C1065.99 1036.91 1078.97 1050.6 1091.97 1063.52C1090.97 1071.23 1088.75 1085.34 1088.52 1092.6L1087.65 1095.99C1091.73 1105.03 1093.47 1158.37 1095.86 1173.17L1184.7 1173.16L1142.63 1457.52L1078.43 1512.8C1070.14 1519.94 1052.89 1535.64 1044.6 1541.5L1042.25 1540.73L1039.19 1563.31C1032.93 1600.05 1028.36 1637.15 1022.44 1673.89C989.694 1704.71 951.636 1733.44 919.038 1764.37C909.583 1773.34 889.569 1799.29 880.393 1810.6L819.321 1886.03C812.362 1894.39 783.473 1928.57 779.561 1936.3C760.877 1955.24 728.074 1997.97 710.342 2019.76L582.52 2176.91C593.194 2101.62 612.022 2024.35 623.911 1949.01C628.427 1920.39 634.404 1885.91 641.228 1857.86L561.814 1857.86C518.537 1809.6 476.807 1758.95 433.351 1710.67C434.92 1692.92 440.269 1663.79 443.114 1645.08L463.114 1513.72L490.307 1335.49C492.521 1320.72 505.075 1221.04 511.633 1214.94L521.461 1216.76C523.379 1209.67 529.038 1138.14 529.817 1128.99C551.873 1113.87 579.848 1097.44 602.908 1083.17L606.264 1063.51C637.192 1037.46 667.564 1010.29 698.599 984.123L883.427 984.164C916.845 984.175 954.205 985.024 987.115 983.791C991.413 983.716 996.254 983.503 1000.48 983.749C1007.22 960.322 1013.9 933.533 1023.08 911.124C1027.61 900.066 1050.57 873.734 1062.13 871.218Z"/>
    <path fill="white" d="M781.525 1138.64L890.852 1138.65L910.379 1159.95C912.005 1173.46 909.221 1204.94 911.259 1212.01C908.248 1219.23 840.551 1278.29 830.037 1289.06L810.212 1289.29C809.512 1289.87 808.813 1290.45 808.114 1291.02C800.024 1335.52 794.235 1407.04 786.252 1448.8L888.736 1448.8C885.285 1487.7 876.357 1537.71 871.272 1577.55C860.69 1589.28 848.051 1601.57 836.88 1612.91L713.149 1612.91L680.998 1580.76C684.616 1556.26 688.829 1531.53 693.109 1507.13C712.949 1394.02 730.235 1280.18 750.676 1167.21C760.898 1157.62 771.181 1148.1 781.525 1138.64Z"/>
    <path fill="#3A629F" d="M910.379 1159.95C912.005 1173.46 909.221 1204.94 911.259 1212.01C908.248 1219.23 840.551 1278.29 830.037 1289.06L810.212 1289.29C817.475 1284.19 836.398 1265.85 843.873 1258.92L909.742 1197.83C909.67 1185.45 909.295 1172.21 910.379 1159.95Z"/>
    <path fill="white" d="M1087.65 1095.99C1091.73 1105.03 1093.47 1158.37 1095.86 1173.17L1184.7 1173.16L1142.63 1457.52L1078.43 1512.8C1070.14 1519.94 1052.89 1535.64 1044.6 1541.5L1042.25 1540.73C1050.85 1483.04 1058.84 1420.5 1068.99 1363.45C1068.12 1356.88 1062.35 1352.34 1057.58 1347.31L1016.61 1302.74C1012.69 1298.18 1008.1 1293.54 1003.94 1289.13C947.648 1288.05 886.643 1289.07 830.037 1289.06C840.551 1278.29 908.248 1219.23 911.259 1212.01C920.683 1210.41 952.959 1211.03 964.291 1211.03L1072.07 1211.13C1076.45 1173.34 1082.61 1133.93 1087.65 1095.99Z"/>
    <path fill="#3A629F" d="M1003.94 1289.13L1081.5 1289.21C1077.68 1312.02 1071.83 1340.98 1068.99 1363.45C1068.12 1356.88 1062.35 1352.34 1057.58 1347.31L1016.61 1302.74C1012.69 1298.18 1008.1 1293.54 1003.94 1289.13Z"/>
    <path fill="white" d="M1016.61 1302.74C1031.53 1301.48 1051.2 1302.08 1066.51 1302.14C1065.16 1310.08 1060.36 1341.58 1057.58 1347.31L1016.61 1302.74Z"/>
    <path fill="white" d="M520.686 1221.7L580.632 1221.77C573.604 1257.06 567.821 1298.83 561.941 1334.74C555.59 1373.53 547.506 1417.39 542.632 1455.99C522.288 1469.03 499.946 1482.14 479.215 1494.83C480.569 1482.31 482.577 1469.5 484.594 1457.04C497.267 1378.82 507.381 1299.79 520.686 1221.7Z"/>
    <path fill="white" d="M529.817 1128.99C551.873 1113.87 579.848 1097.44 602.908 1083.17C602.123 1089.1 601.335 1097.12 599.987 1102.75C594.41 1136.25 588.967 1176.02 582.344 1208.77C581.93 1211.63 580.656 1219.29 580.632 1221.77L520.686 1221.7L521.461 1216.76C523.379 1209.67 529.038 1138.14 529.817 1128.99Z"/>
    <path fill="#3A629F" d="M529.817 1128.99C551.873 1113.87 579.848 1097.44 602.908 1083.17C602.123 1089.1 601.335 1097.12 599.987 1102.75C598.874 1102.58 597.761 1102.4 596.648 1102.23C580.249 1111.53 557.497 1126.26 542.119 1135.99C540.027 1158.81 536.752 1186.23 535.485 1208.78L582.344 1208.77C581.93 1211.63 580.656 1219.29 580.632 1221.77L520.686 1221.7L521.461 1216.76C523.379 1209.67 529.038 1138.14 529.817 1128.99Z"/>
    <path fill="white" d="M1000.48 983.749C1007.22 960.322 1013.9 933.533 1023.08 911.124C1027.61 900.066 1050.57 873.734 1062.13 871.218C1056.21 915.049 1049.3 968.699 1041.59 1012.07C1030.56 1000.49 1019.66 984.361 1004.63 983.825C1003.25 983.783 1001.87 983.758 1000.48 983.749Z"/>
    <path fill="white" d="M703.878 996.048L1008.21 996.048L1064.83 1054.2C1067.92 1057.41 1071.31 1061.83 1075.3 1063.06C1076.32 1064.67 1078.12 1067.43 1077.93 1069.42C1073.93 1112.19 1066.15 1155.51 1061.09 1198.12C1018.77 1198.13 970.141 1196.92 928.367 1198.31L924.622 1197.64C922.121 1194.21 922.989 1189.68 923.105 1185.11L922.936 1155.21L896.811 1126.12L776.276 1126.12L738.78 1160.58L691.92 1438C683.759 1486.38 674.517 1536.71 667.253 1585.11L707.039 1624.88L843.131 1624.88L883.041 1584.09C889.195 1540.02 899.872 1478.35 903.371 1435.87L801.472 1435.87C806.63 1391.86 814.292 1345.73 818.732 1302.11L998.67 1302.1C1017.68 1322.56 1036.57 1343.12 1055.36 1363.79C1048.26 1424.86 1036.36 1495.47 1027.1 1556.91L1023.83 1577.86L1010.62 1667.76C978.158 1695.82 942.47 1725.45 910.906 1754.08C895.12 1756.98 817.768 1753.48 797.884 1753.77C736.173 1755.89 661.12 1753.9 598.399 1753.9L521.479 1660.3C531.031 1614.13 538.978 1554.69 546.688 1507.4L594.161 1216.58C600.949 1174.92 609.498 1108.5 618.612 1069.27C640.668 1053 681.988 1015.03 703.878 996.048Z"/>
    <path fill="white" d="M1027.1 1556.91L1023.83 1577.86L1010.62 1667.76C978.158 1695.82 942.47 1725.45 910.906 1754.08C895.12 1756.98 817.768 1753.48 797.884 1753.77C823.331 1733.28 851.368 1707.97 876.37 1686.48L1027.1 1556.91Z"/>
    <path fill="#3A629F" d="M1027.1 1556.91L1023.83 1577.86C1018.17 1580.27 972.692 1620.36 964.938 1627.03L817.933 1753.44C833.153 1753.38 899.371 1752.22 910.906 1754.08C895.12 1756.98 817.768 1753.48 797.884 1753.77C823.331 1733.28 851.368 1707.97 876.37 1686.48L1027.1 1556.91Z"/>
    <path fill="white" d="M1064.83 1054.2C1067.92 1057.41 1071.31 1061.83 1075.3 1063.06C1076.32 1064.67 1078.12 1067.43 1077.93 1069.42C1073.93 1112.19 1066.15 1155.51 1061.09 1198.12C1018.77 1198.13 970.141 1196.92 928.367 1198.31L924.622 1197.64C922.121 1194.21 922.989 1189.68 923.105 1185.11C969.502 1144.64 1019.34 1096.5 1064.83 1054.2Z"/>
    <path fill="#3A629F" d="M1064.83 1054.2C1067.92 1057.41 1071.31 1061.83 1075.3 1063.06C1064.51 1070.47 1031.76 1101.76 1020.27 1112.69C990.593 1140.93 957.28 1169.71 928.367 1198.31L924.622 1197.64C922.121 1194.21 922.989 1189.68 923.105 1185.11C969.502 1144.64 1019.34 1096.5 1064.83 1054.2Z"/>
    <path fill="white" d="M536.218 1474.75L538.384 1475.5C538.873 1482.3 531.96 1519.63 530.59 1528.02L508.217 1664.37C516.567 1673.2 529.226 1689.64 537.257 1699.43L592.508 1766.85L900.011 1766.85C876.492 1793.6 849.491 1828.61 826.636 1856.7L686.627 2028.72L602.973 2131.85C609.72 2102.93 615.88 2063.22 621.413 2033.11L655.762 1845.02L567.1 1845.02C529.543 1799.04 485.9 1752.35 447.04 1706.42C449.77 1681.08 454.993 1651.53 458.857 1626.09C464.505 1587.82 470.407 1549.58 476.564 1511.39L536.218 1474.75Z"/>
    <path fill="#030000" d="M751.97 1839.71L761.612 1842.1C765.16 1847.94 752.965 1908.64 750.995 1920.91L687.349 1920.91C677.217 1952.21 665.899 1984.26 655.299 2015.49C650.621 2014.13 647.461 2013.83 644.397 2010.16C646.608 2000.01 653.318 1981.92 656.873 1971.47L678.059 1908.59L740.353 1908.58C742.814 1889.08 747.965 1858.64 751.97 1839.71Z"/>
    <path fill="white" d="M1550.48 810.29C1578.18 797.502 1609.66 784.675 1637.91 772.545C1632.46 805.972 1627.95 846.101 1616.22 877.152C1613.34 889.869 1594.11 940.02 1596.19 946.1L1597.79 946.867C1597.96 959.408 1571.15 1004.88 1570.89 1017.33C1564.31 1025.1 1549.84 1042.92 1542.76 1048.81C1537.65 1056.16 1534.39 1059.99 1528.52 1066.66C1518.49 1067.75 1473.95 1112.76 1462.56 1123.51L1395.87 1123.4C1386.62 1123.4 1367.1 1122.97 1358.5 1124.12C1352.01 1187.37 1340.98 1258.73 1332.51 1322.45L1288.55 1653.08C1264.31 1676.9 1220.44 1720.91 1195.39 1741.66C1208.18 1679.05 1219.93 1612.77 1231.7 1549.77C1206.59 1571.73 1178.94 1592.46 1153.44 1614.74C1163.89 1556.02 1172.79 1494.66 1182.13 1435.67L1231.39 1124.02C1194.72 1123.19 1155.04 1123.95 1118.12 1123.94C1124.02 1080.65 1128.48 1033.78 1133.32 990.06L1403.59 990.072L1492.73 989.85C1501.65 989.829 1517.88 992.346 1524.81 988.885C1528.33 983.621 1527.18 986.518 1527.64 979.605L1525.67 977.59C1515.91 975.884 1504.01 977.149 1493.75 977.131L1420.03 977.082L1143.71 977.05L1261.18 864.101L1433.45 864.099L1444.18 830.874L1544.96 830.874L1550.48 810.29Z"/>
    <path fill="#3A629F" d="M1542.76 1048.81C1552.55 1020.36 1571.74 981.213 1583.25 952.285C1589.33 937.004 1609.38 888.813 1616.22 877.152C1613.34 889.869 1594.11 940.02 1596.19 946.1L1597.79 946.867C1597.96 959.408 1571.15 1004.88 1570.89 1017.33C1564.31 1025.1 1549.84 1042.92 1542.76 1048.81Z"/>
    <path fill="#3A629F" d="M1088.52 1092.6C1095.52 1091.98 1095.56 1090.77 1100.44 1093.61C1105.74 1102.34 1100.39 1113.27 1105.37 1123.31C1104.54 1127.7 1103.42 1132.76 1105.53 1136.91L1216.73 1136.87L1169.45 1434.73L1166.1 1454.32L1139.02 1626.44L1135.77 1647.07C1117.32 1651.27 934.148 1816.73 901.951 1836.98C888.294 1845.57 854.946 1878.14 839.313 1888.41C822.606 1899.39 797.566 1926.68 779.561 1936.3C783.473 1928.57 812.362 1894.39 819.321 1886.03L880.393 1810.6C889.569 1799.29 909.583 1773.34 919.038 1764.37C951.636 1733.44 989.694 1704.71 1022.44 1673.89C1028.36 1637.15 1032.93 1600.05 1039.19 1563.31L1042.25 1540.73L1044.6 1541.5C1052.89 1535.64 1070.14 1519.94 1078.43 1512.8L1142.63 1457.52L1184.7 1173.16L1095.86 1173.17C1093.47 1158.37 1091.73 1105.03 1087.65 1095.99L1088.52 1092.6Z"/>
    <path fill="white" d="M1039.19 1563.31C1072.56 1534.58 1108.06 1505.02 1140.77 1475.83C1129.07 1527.44 1125.72 1595.38 1114.32 1646.28C1085.09 1670.29 828.375 1884.11 819.321 1886.03L880.393 1810.6C889.569 1799.29 909.583 1773.34 919.038 1764.37C951.636 1733.44 989.694 1704.71 1022.44 1673.89C1028.36 1637.15 1032.93 1600.05 1039.19 1563.31Z"/>
    <path fill="white" d="M1105.53 1136.91L1216.73 1136.87L1169.45 1434.73L1157.52 1444.95L1199.57 1160.24L1107.02 1160.24L1105.53 1136.91Z"/>
    <path fill="white" d="M1155.06 1463.9L1166.1 1454.32L1139.02 1626.44C1135.79 1628.98 1134.43 1630.53 1130.39 1631.34C1130.36 1625.04 1131.73 1617.65 1132.73 1611.35C1140.49 1562.35 1146.51 1512.75 1155.06 1463.9Z"/>
    <path fill="white" d="M1825.8 717.021C1818.21 763.017 1813.09 830.803 1808.01 878.411L1799.12 961.93C1797.77 974.709 1794.99 995.239 1794.68 1007.51L1640 1007.53C1641.13 999.199 1657.96 956.179 1661.7 946.332C1666.74 932.205 1716.08 813.268 1721.27 808.239C1747.46 782.827 1796.01 741.39 1825.8 717.021Z"/>
    <path fill="white" d="M1122.62 859.893C1124.61 846.172 1126.73 830.414 1129.75 816.874C1130.54 813.316 1131.3 813.754 1134.1 812.499C1135.4 814.95 1136.65 818.749 1138.64 819.044C1147.63 820.376 1160.73 819.903 1169.92 819.845L1246.92 819.45C1257.02 819.437 1277.99 818.912 1287.01 820.144C1284.11 825.497 1253.97 853.357 1247.25 859.909C1242.71 864.169 1237.27 868.995 1233.09 873.475C1196.81 908.251 1156.1 945.812 1121.23 981.398C1117.65 1027.01 1110.55 1077.45 1105.37 1123.31C1100.39 1113.27 1105.74 1102.34 1100.44 1093.61C1095.56 1090.77 1095.52 1091.98 1088.52 1092.6C1088.75 1085.34 1090.97 1071.23 1091.97 1063.52C1078.97 1050.6 1065.99 1036.91 1053.19 1023.73C1056.09 994.575 1062.57 961.433 1066.19 931.895C1067.6 920.39 1073.18 880.2 1076.01 871.528C1073.68 865.266 1068.53 864.85 1062.96 867.452L1062.13 871.218C1050.57 873.734 1027.61 900.066 1023.08 911.124C1013.9 933.533 1007.22 960.322 1000.48 983.749C996.254 983.503 991.413 983.716 987.115 983.791C994.303 959.57 1003.51 917.949 1015.99 897.567C1019.41 891.982 1043.55 866.651 1049.84 859.903L1122.62 859.893Z"/>
    <path fill="#3A629F" d="M1122.62 859.893C1124.61 846.172 1126.73 830.414 1129.75 816.874C1130.54 813.316 1131.3 813.754 1134.1 812.499C1135.4 814.95 1136.65 818.749 1138.64 819.044C1147.63 820.376 1160.73 819.903 1169.92 819.845L1246.92 819.45C1257.02 819.437 1277.99 818.912 1287.01 820.144C1284.11 825.497 1253.97 853.357 1247.25 859.909C1242.71 864.169 1237.27 868.995 1233.09 873.475C1216.33 871.253 1152.81 872.779 1133.11 872.827C1127.94 914.94 1117.17 957.918 1112.3 1000.22C1111.21 1009.76 1110.02 1022.57 1100.62 1027.47L1097.63 1025.59C1094.39 1017.26 1117.11 891.302 1120.18 872.843C1109.71 872.902 1084.86 873.83 1076.01 871.528C1073.68 865.266 1068.53 864.85 1062.96 867.452L1062.13 871.218C1050.57 873.734 1027.61 900.066 1023.08 911.124C1013.9 933.533 1007.22 960.322 1000.48 983.749C996.254 983.503 991.413 983.716 987.115 983.791C994.303 959.57 1003.51 917.949 1015.99 897.567C1019.41 891.982 1043.55 866.651 1049.84 859.903L1122.62 859.893Z"/>
    <path fill="white" d="M1287.01 820.144C1284.11 825.497 1253.97 853.357 1247.25 859.909L1135.02 859.893C1137.62 849.463 1140 831.535 1141.83 820.428C1189.74 820.469 1239.23 821.126 1287.01 820.144Z"/>
    <path fill="white" d="M1462.56 1123.51C1473.95 1112.76 1518.49 1067.75 1528.52 1066.66C1519.72 1076.59 1492.94 1104.02 1491.72 1114.27L1456.86 1356.15L1453.67 1378.6C1447.04 1380.26 1336.33 1484.63 1322.09 1497.88C1323.18 1489.95 1323.75 1481.88 1325.08 1474.01C1331.6 1429.26 1336.51 1383.93 1343.33 1339.23L1345.61 1320.32C1371.26 1301.02 1405.74 1271.18 1430.63 1249.89C1433.17 1226.82 1434.68 1203.51 1437.3 1180.49C1438.9 1166.44 1437.72 1146.95 1447.58 1136.83C1453.34 1136.86 1458.17 1137.74 1462.06 1134.5C1461.79 1129.21 1462.73 1128.7 1460 1125.56C1443.13 1122.43 1382.91 1125.93 1360.25 1124.26L1358.5 1124.12C1367.1 1122.97 1386.62 1123.4 1395.87 1123.4L1462.56 1123.51Z"/>
    <path fill="#3A629F" d="M1462.56 1123.51C1473.95 1112.76 1518.49 1067.75 1528.52 1066.66C1519.72 1076.59 1492.94 1104.02 1491.72 1114.27C1479.72 1124.33 1464.71 1138.46 1453.43 1149.61C1449.2 1194.19 1444.72 1238.73 1440.01 1283.26C1438.53 1296.81 1439.47 1319.69 1433 1330.76C1428.66 1333.54 1431.04 1332.86 1425.48 1332.32C1423.04 1329.86 1423.03 1330.79 1423.37 1326.55C1424.91 1307.15 1426.94 1287.29 1428.91 1267.95C1403.24 1289.27 1367.18 1317.34 1343.33 1339.23L1345.61 1320.32C1371.26 1301.02 1405.74 1271.18 1430.63 1249.89C1433.17 1226.82 1434.68 1203.51 1437.3 1180.49C1438.9 1166.44 1437.72 1146.95 1447.58 1136.83C1453.34 1136.86 1458.17 1137.74 1462.06 1134.5C1461.79 1129.21 1462.73 1128.7 1460 1125.56C1443.13 1122.43 1382.91 1125.93 1360.25 1124.26L1358.5 1124.12C1367.1 1122.97 1386.62 1123.4 1395.87 1123.4L1462.56 1123.51Z"/>
    <path fill="#3A629F" d="M1325.08 1474.01L1327.41 1474.71C1335.66 1469.09 1361.23 1444.5 1370.19 1436.2L1456.86 1356.15L1453.67 1378.6C1447.04 1380.26 1336.33 1484.63 1322.09 1497.88C1323.18 1489.95 1323.75 1481.88 1325.08 1474.01Z"/>
    <path fill="white" d="M1557.8 729.171C1561.27 733.012 1561.53 732.26 1561.14 738.784C1560.05 757.122 1554.59 777.072 1553.31 795.098L1539.35 800.774C1538.74 805.535 1536.48 813.443 1535.24 818.345L1434.96 818.344L1424.34 851.059L1274.37 851.058C1313.25 816.535 1354.62 773.135 1393.52 736.821L1548.64 737.008C1556.07 736.823 1555.23 735.235 1557.8 729.171Z"/>
    <path fill="#3A629F" d="M1557.8 729.171C1561.27 733.012 1561.53 732.26 1561.14 738.784C1560.05 757.122 1554.59 777.072 1553.31 795.098L1539.35 800.774C1542.69 779.713 1545.59 758.147 1548.64 737.008C1556.07 736.823 1555.23 735.235 1557.8 729.171Z"/>
    <path fill="white" d="M1369.66 1136.87L1447.58 1136.83C1437.72 1146.95 1438.9 1166.44 1437.3 1180.49C1434.68 1203.51 1433.17 1226.82 1430.63 1249.89C1405.74 1271.18 1371.26 1301.02 1345.61 1320.32C1354.28 1262.39 1363.25 1195.02 1369.66 1136.87Z"/>
    <path fill="white" d="M1639.57 836.669C1639.97 838.843 1640.24 839.343 1640.98 841.427C1645.54 838.971 1663.63 822.249 1668.37 818.042C1688.45 800.097 1708.63 782.27 1728.92 764.562C1725.83 772.405 1721.4 781.424 1721.5 789.566C1719.89 790.868 1712.67 796.703 1711.93 797.81C1698.31 818.152 1679.91 878.542 1667.7 895.508L1652.49 933.074L1611.5 933.074C1619.56 911.519 1626.75 887.222 1634.68 864.958C1637.68 855.126 1638.35 846.845 1639.57 836.669Z"/>
    <path fill="#3A629F" d="M1639.57 836.669C1639.97 838.843 1640.24 839.343 1640.98 841.427C1645.54 838.971 1663.63 822.249 1668.37 818.042C1688.45 800.097 1708.63 782.27 1728.92 764.562C1725.83 772.405 1721.4 781.424 1721.5 789.566C1719.89 790.868 1712.67 796.703 1711.93 797.81C1698.31 818.152 1679.91 878.542 1667.7 895.508C1670.84 881.483 1694.12 821.439 1700.2 806.503L1634.68 864.958C1637.68 855.126 1638.35 846.845 1639.57 836.669Z"/>
    <path fill="white" d="M1647.81 946.254L1661.7 946.332C1657.96 956.179 1641.13 999.199 1640 1007.53L1625.07 1007.52L1580.02 1007.52L1570.89 1017.33C1571.15 1004.88 1597.96 959.408 1597.79 946.867C1611.69 945.567 1633.42 945.864 1647.81 946.254Z"/>
    <path fill="#3A629F" d="M1647.81 946.254L1661.7 946.332C1657.96 956.179 1641.13 999.199 1640 1007.53L1625.07 1007.52C1629.66 998.932 1644.46 956.718 1647.81 946.254Z"/>
    <path fill="white" d="M1585.73 1019.89L1838.73 1019.88C1861.94 1044.74 1887.42 1073.59 1909.67 1099.37C1886.25 1255.44 1867.04 1412.56 1844.17 1568.74C1838.33 1608.6 1832.48 1649.26 1827.68 1689.24C1802.56 1713.09 1767.89 1741.42 1741.15 1764.59L1731.81 1772.53L1522.04 1772.53C1490.53 1733.08 1458.27 1693.37 1427.31 1653.55C1432.6 1599.58 1444.8 1529.28 1452.67 1474.6L1504.51 1114.39C1526.09 1086.25 1561.68 1047.68 1585.73 1019.89Z"/>
    <path fill="#030000" d="M1660.19 1139.88L1730.77 1139.88C1745.46 1151.15 1764.68 1169.02 1779 1181.57C1759.59 1321.42 1736.05 1464.79 1714.58 1604.65L1674.29 1637.58C1667.57 1642.17 1602.93 1640.17 1589.92 1640.08C1579.92 1627.07 1570.07 1613.96 1560.36 1600.74C1564.48 1554.98 1573.53 1498.87 1579.7 1452.72L1616.43 1179.04C1631.17 1166.49 1645.11 1152.65 1660.19 1139.88Z"/>
    <path fill="white" d="M1664.54 1152.9L1727.35 1152.9C1739.92 1164.63 1752.53 1175.37 1765.58 1186.54L1702.97 1597.96L1669.65 1624.79C1662.71 1630.4 1608.54 1628 1596.69 1627.89C1588.99 1618.27 1581 1607.18 1573.52 1597.26C1577.48 1553.82 1586.16 1500.26 1592.1 1455.88L1628.22 1185.99C1640.12 1174.73 1652.22 1163.7 1664.54 1152.9Z"/>
    <path fill="white" d="M1211.33 1583.27C1212.61 1591.47 1193.46 1684.46 1190.19 1697.94L1141.38 1697.94C1140.63 1691.05 1149.59 1640 1151.59 1631.25C1165.46 1618.69 1195.34 1596.28 1211.33 1583.27Z"/>
    <path fill="#030000" d="M2069.66 1007.65L2304.79 1007.5C2337.66 1039.38 2373.42 1072.59 2405.4 1105.03C2398.87 1138.58 2395.94 1186.58 2391.22 1221.74C2385.9 1261.36 2376.93 1303.53 2372.15 1342.44L2370.87 1352.84L2370.12 1346C2363.02 1344.29 2357 1355.76 2356.26 1361.97L2354.96 1358.66C2349.47 1360.24 2256.92 1449.36 2245.99 1460.07C2242.73 1456.81 2239.18 1454.3 2238.61 1450.02C2244.15 1443.69 2250.3 1437.97 2256.47 1432.24C2288.64 1402.35 2320.07 1371.42 2352.44 1341.76L2207.93 1341.73L2170.38 1307.36C2160.59 1372.95 2149.21 1450.67 2137.23 1515.79C2146.35 1509.57 2184.38 1484.17 2189.34 1478.4C2194.95 1477.2 2230.66 1476.64 2235.8 1477.38C2252.54 1479.81 2331.49 1474.21 2341.03 1479.18C2341.95 1490.77 2340.57 1503.05 2339.79 1514.65C2337.04 1555.3 2332.86 1596.02 2330.36 1636.67C2292.53 1672.63 2245.79 1708.51 2209.1 1744L1957.91 1744.01C1944.19 1729.79 1930.38 1715.66 1916.47 1701.62L1907.59 1692.56L1864.33 1648.36C1869.27 1621.46 1873.1 1589.24 1877.06 1561.76L1900.2 1401.36C1914.66 1301.17 1932.61 1192.6 1944.46 1092.66C1978.08 1065.16 2009.53 1034.36 2044.18 1008.26C2045.56 1007.22 2051.6 1007.22 2053.52 1007.24L2069.66 1007.65Z"/>
    <path fill="white" d="M2111.28 1152.9L2212.75 1152.9L2232.44 1175.48C2230.87 1195.98 2230.24 1217.28 2229.09 1237.91L2375.71 1237.92C2372.25 1265.8 2365.96 1302.44 2360.65 1330C2364.9 1335.97 2366.65 1337.37 2372.15 1342.44L2370.87 1352.84L2370.12 1346C2363.02 1344.29 2357 1355.76 2356.26 1361.97L2354.96 1358.66C2349.47 1360.24 2256.92 1449.36 2245.99 1460.07C2242.73 1456.81 2239.18 1454.3 2238.61 1450.02C2244.15 1443.69 2250.3 1437.97 2256.47 1432.24C2288.64 1402.35 2320.07 1371.42 2352.44 1341.76L2207.93 1341.73L2170.38 1307.36C2160.59 1372.95 2149.21 1450.67 2137.23 1515.79C2146.35 1509.57 2184.38 1484.17 2189.34 1478.4C2187.45 1485.94 2186.83 1490.36 2185.84 1497.97C2184.06 1521.64 2178.29 1552.73 2175.56 1577.57L2150.28 1602.87L2045.48 1602.87L2023.64 1577.18L2063.41 1305.21C2069.63 1262.75 2077.96 1214.38 2082.31 1172.51L2111.28 1152.9Z"/>
    <path fill="#3A629F" d="M2161.8 1282.06L2212.97 1329.24L2309.37 1329.1C2323.29 1329.09 2347.68 1328.4 2360.65 1330C2364.9 1335.97 2366.65 1337.37 2372.15 1342.44L2370.87 1352.84L2370.12 1346C2363.02 1344.29 2357 1355.76 2356.26 1361.97L2354.96 1358.66C2349.47 1360.24 2256.92 1449.36 2245.99 1460.07C2242.73 1456.81 2239.18 1454.3 2238.61 1450.02C2244.15 1443.69 2250.3 1437.97 2256.47 1432.24C2288.64 1402.35 2320.07 1371.42 2352.44 1341.76L2207.93 1341.73L2170.38 1307.36C2160.59 1372.95 2149.21 1450.67 2137.23 1515.79C2146.35 1509.57 2184.38 1484.17 2189.34 1478.4C2187.45 1485.94 2186.83 1490.36 2185.84 1497.97C2180.29 1501.18 2174.35 1505.51 2169.03 1509.14C2133.35 1533.54 2098.35 1559.18 2062.31 1583.02L2055 1573.02L2122.75 1526.01C2125.12 1511.65 2127.64 1497.24 2129.43 1482.8C2130.48 1475.86 2131.31 1472.13 2130.84 1464.98C2134.19 1462.11 2158.79 1300.92 2161.8 1282.06Z"/>
    <path fill="#030000" d="M2130.84 1464.98C2131.31 1472.13 2130.48 1475.86 2129.43 1482.8C2120.66 1488.32 2093.39 1511.62 2085.07 1518.79L2076.76 1508.76C2094.62 1493.97 2112.65 1479.37 2130.84 1464.98Z"/>
    <path fill="white" d="M2048.69 1019.88L2299.42 1019.88C2328.47 1049.32 2361.4 1079.7 2391.29 1108.73C2389.91 1133.12 2381.28 1201.98 2377.15 1226.03L2242.83 1226.03C2242.67 1209.16 2244.25 1188.37 2245.31 1171.27C2236.65 1160.8 2227.52 1150.41 2218.77 1139.88L2107.73 1139.88L2070.67 1165.2C2060.51 1258.36 2041.51 1353.91 2029.84 1447.24C2024.48 1490.02 2017.97 1538.46 2010.07 1580.78C2019.88 1592.58 2029.84 1604.25 2039.96 1615.79L2155.46 1615.79L2187.47 1583.73C2188.65 1569.53 2191.83 1549.98 2193.8 1535.52C2195.96 1520.34 2197.88 1505.14 2199.54 1489.9L2328.8 1489.9C2324.24 1535.88 2323.21 1585.78 2317.61 1631.27L2204.12 1731.12L1963.32 1731.12C1954.65 1722.39 1932.12 1701.43 1926.57 1692.34C1927.88 1689.11 1927.64 1690.33 1927.71 1686.74C1919.48 1679.83 1918.25 1683.95 1916.48 1682.39C1905.22 1672.47 1888.58 1655.13 1878.29 1644.7C1882.15 1601.38 1892.55 1542.92 1899 1498.26L1936.24 1240.76C1942.88 1194.83 1950.86 1145.76 1956.22 1099.85C1985.1 1073.5 2018.85 1045.64 2048.69 1019.88Z"/>
    <path fill="#030000" d="M1831.24 1723.32C1834.6 1726.85 1838.46 1729.39 1838.71 1733.11C1811.81 1762.14 1778.87 1793.56 1750.55 1821.8C1744.74 1822.29 1738.05 1823.04 1732.29 1822.97C1700.09 1859.48 1668.1 1896.17 1636.3 1933.04C1617.51 1954.68 1592.68 1981.72 1575.21 2003.65L1545.75 2201.64C1540.58 2236.59 1532.74 2280.8 1529.19 2315.34L1691.38 2153.14L1826.56 2153.21C1826.46 2157.76 1827.29 2161.78 1825.12 2164.71C1788.9 2168.39 1730.78 2162.04 1696.42 2165.93L1511.01 2351.15C1513.58 2325.97 1519.27 2293.81 1523.04 2268.36L1546.06 2113.05C1548.76 2094.85 1558.05 2040.01 1558.19 2024.88C1550.39 2030.12 1509.81 2027.96 1497.18 2027.96L1337.27 2027.94C1342.83 1956.04 1356.9 1878.58 1362.49 1806.43L880.028 2128.85C876.991 2146.41 860.874 2228.35 855.688 2240.8C850.071 2241.15 848.549 2241.16 845.67 2236.66C845.016 2230.18 863.117 2149.69 865.679 2138.42C852.356 2147.38 778.493 2198.06 770.171 2201.21C766.455 2199.52 764.709 2195.76 762.347 2192.17L869.231 2120.9C873.825 2096.07 882.401 2056.42 888.157 2030.83C888.524 2029.2 890.697 2029.05 892.756 2028.41C898.494 2029.97 896.202 2028.52 900.145 2032.45C894.433 2055.5 889.352 2086.44 883.708 2111.16L1364.4 1789.81C1366.16 1778.59 1367.73 1767.34 1369.12 1756.06L1370.51 1752.63L1374.57 1750.97C1380.81 1751.99 1378.74 1750.45 1381.88 1754.39L1378.66 1780.42L1450.7 1732.26C1453.36 1736.23 1455.64 1738.43 1456.3 1742.78C1441.02 1757.08 1395.44 1782.85 1376.12 1797.66C1371.88 1869.23 1355.39 1944.39 1351.57 2015.48L1547.66 2015.48C1602.86 1952.45 1660.56 1887.22 1714.62 1823.35C1670.21 1827.4 1621.56 1827.37 1576.65 1830.23C1563.57 1831.06 1512.82 1834.31 1503.5 1833C1501.14 1829.64 1501.7 1827.96 1501.73 1823.74C1507.83 1818.16 1526.01 1819.95 1535.16 1819.61L1592.35 1816.95C1637.13 1814.8 1701.06 1809.81 1744.46 1810.08L1831.24 1723.32Z"/>
    <path fill="#3A629F" d="M1758.68 1898.84L1771.75 1900.91C1765.67 1930.79 1759.78 1960.71 1754.09 1990.66C1751.9 2001.94 1748.22 2024.17 1745.27 2034.11C1769.21 2032.32 1805.44 2033.42 1830.21 2033.44L1984.99 2033.52L2091.88 2033.42C2104.44 2033.4 2134.67 2032.64 2145.47 2034.12C2144.15 2055.24 2142.65 2096.88 2139.71 2116.51C2139.72 2131.9 2137.88 2150.59 2136.73 2166.17L1836.89 2166.24L1743.62 2166.63C1731.22 2166.64 1707.72 2167.29 1696.42 2165.93C1730.78 2162.04 1788.9 2168.39 1825.12 2164.71C1827.29 2161.78 1826.46 2157.76 1826.56 2153.21C1870.74 2154.28 1919.09 2153.29 1963.62 2153.3C1997.9 2119.71 2042.73 2079.74 2078.78 2047.44L1848.24 2047.4C1818.57 2047.4 1757.85 2049.22 1730.46 2046.8C1738.09 1998.56 1750.28 1947.65 1758.68 1898.84Z"/>
    <path fill="white" d="M1982.36 2153.3C2004.51 2132.03 2028.94 2110.34 2051.6 2089.41C2064.38 2077.6 2084.62 2057.79 2097.78 2047.42C2109.69 2047.5 2120.59 2047.62 2132.52 2046.81C2130.09 2066.64 2128.68 2092.62 2127.79 2112.8C2126.42 2115.45 2125.45 2147.48 2125.21 2153.28L1982.36 2153.3Z"/>
    <path fill="#030000" d="M1758.68 1898.84L1771.75 1900.91C1765.67 1930.79 1759.78 1960.71 1754.09 1990.66C1751.9 2001.94 1748.22 2024.17 1745.27 2034.11C1770.18 2036.61 1830.36 2034.73 1858.47 2034.72L2090.96 2034.75L2079.21 2046.23L1845.85 2046.28C1816.29 2046.27 1756.8 2044.3 1730.46 2046.8C1738.09 1998.56 1750.28 1947.65 1758.68 1898.84Z"/>
    <path fill="#030000" d="M2145.47 2034.12C2144.15 2055.24 2142.65 2096.88 2139.71 2116.51C2134.94 2116.68 2134.36 2116.73 2129.42 2115.96L2127.79 2112.8C2128.68 2092.62 2130.09 2066.64 2132.52 2046.81C2126.24 2045.87 2108.19 2046.24 2100.94 2046.23L2090.52 2034.76C2107.32 2034.81 2129.25 2035.43 2145.47 2034.12Z"/>
    <path fill="#3A629F" d="M1953.17 1822.8C1962.45 1824.06 1971.28 1825.62 1980.49 1827.25L1969.26 1841.88L2036.09 1841.86C2034.68 1848.57 2033.61 1856.07 2032.47 1862.9C2019.72 1878.83 2009.72 1886.83 1993.02 1898.18C2008.05 1902.08 2019.33 1904.55 2034.62 1906.79C2030.63 1914.37 2027.59 1922.44 2024.36 1930.4C2004.06 1926.76 1984.31 1920.5 1965.62 1911.78L1945.67 1918.82C1930.44 1924.45 1912.11 1927.38 1895.78 1929.48C1893.37 1931.78 1891.32 1933.75 1889.6 1935.39L1879.64 1927.27C1874.45 1952.94 1871 1980.76 1866.01 2006.98C1857.69 2006.95 1849.38 2006.87 1841.07 2006.74L1853.3 1931.08C1844.86 1943.08 1837.49 1953.36 1828.25 1964.87C1828.4 1953.59 1827.89 1943.06 1827.39 1931.79C1842.4 1912.92 1849.12 1902.09 1860.27 1880.76L1837.37 1880.74L1840.78 1857.31L1865.6 1857.33C1867.2 1846.4 1869.16 1835.24 1870.94 1824.31C1879.27 1824.31 1887.61 1824.39 1895.94 1824.56L1891.01 1857.29C1896.98 1857.23 1902.96 1857.31 1908.93 1857.53C1912.56 1860.75 1908.38 1860.95 1910.95 1867.78C1922.03 1862.92 1945.23 1833.26 1953.17 1822.8Z"/>
    <path fill="white" d="M1887.26 1880.76C1904.73 1880.19 1904.2 1881.07 1913.95 1894.63L1929.98 1881.98C1934.16 1887.18 1941.33 1893.06 1941.93 1898.3C1927.59 1902.74 1912.6 1905.85 1897.93 1909.16C1892.82 1905.78 1888.75 1902.75 1883.88 1899.01L1887.26 1880.76Z"/>
    <path fill="white" d="M1948.41 1863.11C1962.74 1862.18 1985.29 1862.83 2000.24 1862.83C1996.07 1867.13 1991.57 1871.36 1987.26 1875.54C1981.43 1880.14 1975.87 1883.27 1969.53 1887.09C1959.26 1879.02 1955.09 1874.63 1948.41 1863.11Z"/>
    <path fill="#3A629F" d="M2190.79 1833.04L2212.29 1823.19C2217.27 1831.36 2222.29 1840.63 2227.06 1849.02L2207.53 1858.34L2256.13 1858.32L2253.18 1877.78L2217.82 1877.78L2214.55 1897.21L2248.12 1897.21L2244.97 1916.14L2211.26 1916.15L2208.07 1936.34L2241.63 1936.34C2240.69 1942.4 2240.73 1950.47 2236.89 1954.67L2205.27 1954.71C2204.05 1961.1 2203.19 1967.95 2202.24 1974.42L2239.5 1974.42L2236.09 1993.7C2210.09 1993.68 2180.53 1992.97 2154.95 1993.45C2129.25 1993.92 2155.94 2007.84 2113.48 2006.77C2116.38 1981.07 2123.95 1942.06 2128.31 1915.63C2124.89 1918.71 2120.77 1923.03 2117.41 1926.35C2115.11 1917.2 2113.38 1911.26 2110.22 1902.38C2132.22 1878.46 2146.7 1852.41 2160.74 1823.58C2167.05 1825.76 2178.36 1828.39 2185.15 1830.2L2169.72 1858.32L2202.44 1858.34C2198.68 1849.85 2194.79 1841.41 2190.79 1833.04Z"/>
    <path fill="white" d="M2154.45 1916.15L2184.89 1916.14L2182.02 1936.32L2151.48 1936.17L2154.45 1916.15Z"/>
    <path fill="white" d="M2148.18 1954.68L2178.5 1954.78L2175.73 1974.41L2145.18 1974.42L2148.18 1954.68Z"/>
    <path fill="white" d="M2161.13 1877.83L2190.95 1877.81L2188.18 1897.14L2157.79 1897.22C2158.94 1890.76 2160.05 1884.3 2161.13 1877.83Z"/>
    <path fill="#3A629F" d="M1857.5 990.29L2161.46 714.416C2212.66 667.929 2268.18 619.279 2318.18 571.981C2314.2 612.946 2310.5 653.939 2307.09 694.956C2304.99 718.968 2301.63 748.039 2300.52 771.765L2132.83 940.861C2120.13 953.677 2077.46 993.195 2068.95 1005.94L2069.66 1007.65L2053.52 1007.24C2053.59 1003.24 2053.24 1003.24 2056.77 999.621C2080.58 975.195 2105.23 950.651 2129.22 926.451L2287.73 766.548C2292.86 712.339 2297.68 658.1 2302.19 603.834L2013.98 865.444C1967.58 907.566 1912.68 960.091 1865.84 999.556L1857.5 990.29Z"/>
    <path fill="#3A629F" d="M1907.07 1931.07C1942.74 1931.83 1980.85 1931.17 2016.71 1931.16C2011.7 1955.02 2009.68 1980.54 2004.03 2004.61C2000.67 2007.54 1999.79 2006.48 1994.02 2006.67C1989.48 2006.87 1983.56 2007.75 1979.87 2005.7C1979.25 2001.77 1979.35 2002.03 1976.96 1998.84C1969.78 1995.53 1935.74 1996.91 1927.1 1998.2L1925.71 1999.35C1913.23 2009.49 1910.71 2007.26 1894.48 2006.75C1899.01 1981.89 1902.86 1956.1 1907.07 1931.07Z"/>
    <path fill="white" d="M1930.02 1953.85L1985.66 1953.83L1982.31 1974.41L1926.91 1974.42C1928.3 1967.5 1929.1 1960.83 1930.02 1953.85Z"/>
    <path fill="#3A629F" d="M1414.03 2060.36L1528.66 2060.35C1509.97 2079.59 1484.12 2103.04 1464.35 2121.93L1405.86 2177.94C1406.57 2151.82 1410.62 2085.13 1414.03 2060.36Z"/>
    <path fill="white" d="M1425.57 2073.2L1496.77 2073.21C1484 2086.02 1469.83 2099.14 1456.69 2111.71L1420.32 2146.41C1422.03 2122.16 1423.36 2097.36 1425.57 2073.2Z"/>
    <path fill="#3A629F" d="M2093.77 1823.19L2116.87 1829.6C2106.93 1845.73 2093.24 1862.54 2082.3 1878.76C2085.06 1881.12 2087.06 1880.11 2091.89 1880.04C2097.1 1875.29 2105.3 1862.21 2109.65 1855.76L2130.7 1863.15C2115.5 1885.46 2099.49 1907.2 2082.7 1928.35L2096.78 1927.12L2112.77 1925.28C2110.66 1932.43 2108.82 1940.08 2106.95 1947.34C2090.29 1948.22 2069.75 1950.15 2053.39 1953.34L2050.26 1932.65C2060.98 1922.1 2068.31 1912.83 2077.51 1901.07C2070.24 1901.33 2064.35 1901.82 2057.16 1902.54L2053.45 1882.67C2067.98 1867.63 2082.81 1841.5 2093.77 1823.19Z"/>
    <path fill="#3A629F" d="M1370.86 1738.36C1375.1 1700.04 1379.56 1661.75 1384.22 1623.49C1385.9 1609.38 1389.44 1572.68 1393 1560.81C1397.54 1559.08 1395.07 1559.5 1400.83 1561.03C1407.59 1568.95 1400.28 1595.17 1398.99 1606.03L1388.03 1700.89C1386.96 1709.93 1384.04 1747.91 1381.88 1754.39C1378.74 1750.45 1380.81 1751.99 1374.57 1750.97L1370.51 1752.63L1369.12 1756.06L1367.72 1751.36C1360.77 1749.94 1325.98 1750.51 1316.99 1750.52L1205.27 1750.64L1218.77 1737.96C1266.63 1739.84 1322.36 1738.32 1370.86 1738.36Z"/>
    <path fill="#3A629F" d="M1160.5 1846.82C1164.43 1848.36 1167.38 1851.86 1168.25 1855.94C1157.21 1868.25 1111.5 1906.4 1096.64 1919.4L945.839 2051.26C941.616 2049.76 939.281 2046 938.32 2041.88C942.417 2036.47 992.548 1993.45 1001.3 1985.8L1160.5 1846.82Z"/>
    <path fill="#3A629F" d="M1095.5 1836.56C1097.67 1838.2 1102.35 1843.48 1104.46 1845.74L912.318 2025.52C908.694 2024.07 905.973 2020.12 903.042 2016.91L1095.5 1836.56Z"/>
    <path fill="#3A629F" d="M1907.59 1692.56L1916.47 1701.62C1910.04 1707.9 1874.55 1741.43 1872.53 1746.41L1862.52 1755.14C1837.47 1778.05 1809.11 1806.78 1784.92 1831.03C1780.99 1854.34 1775.51 1877.97 1771.75 1900.91L1758.68 1898.84C1762.4 1887.32 1770.67 1839.06 1773.74 1824.23C1800.78 1797.4 1828.24 1771.13 1854.93 1743.91C1857.26 1741.34 1861.49 1737.46 1864.1 1734.92C1878.5 1722.15 1893.78 1706.31 1907.59 1692.56Z"/>
    <path fill="#030000" d="M1862.52 1755.14L1872.53 1746.41C1880.39 1757.8 1888.36 1769.12 1896.43 1780.36L1996.18 1780.46C2006.56 1780.47 2032.95 1779.44 2041.1 1781.2C2044.14 1784.38 2043.1 1783.81 2043.05 1789.74L2041.6 1792.09C2028.7 1793.82 2002.63 1793.13 1988.69 1793.12L1889.88 1792.99C1882.31 1782.36 1870.45 1764.68 1862.52 1755.14Z"/>
    <path fill="#3A629F" d="M1034.92 1846.84C1039.36 1848.78 1042.05 1851.37 1042.47 1856.19C1034.52 1865.28 1013.54 1882.79 1003.41 1891.7L934.052 1952.92C930.682 1950.73 928.087 1947.14 925.32 1943.98L1034.92 1846.84Z"/>
    <path fill="#3A629F" d="M1176.7 1772.65L1178.35 1776.68C1177.77 1779.35 1177.45 1781.32 1177.03 1784C1172 1786.78 1044.6 1786.73 1040.97 1783.09C1040.6 1777.36 1039.6 1777.4 1042.12 1773.52C1051.66 1770.51 1160.55 1772.2 1176.7 1772.65Z"/>
    <path fill="#3A629F" d="M2104.29 1961.76C2108.12 1961.16 2106.87 1961.09 2110.44 1961.87C2112.67 1966.85 2108.59 1980.06 2107.17 1985.99C2087.45 1988.55 2067.77 1991.47 2048.16 1994.77C2042.6 1995.52 2044.96 1996.08 2040.54 1994.29C2037.75 1988.03 2039 1978.47 2039.19 1971.05C2060.41 1967.49 2082.89 1964.72 2104.29 1961.76Z"/>
    <path fill="#030000" d="M2303.48 1705.1L2312.64 1713.75L2236.37 1791.05C2232.4 1787.73 2231.16 1787.08 2228.63 1782.44C2233.23 1773.11 2292.79 1715.82 2303.48 1705.1Z"/>
    <path fill="#030000" d="M2356.26 1361.97C2357 1355.76 2363.02 1344.29 2370.12 1346L2370.87 1352.84L2370.49 1354.24C2364.7 1376.69 2359.11 1428.06 2353.8 1453.84C2352.95 1454.36 2352.1 1454.89 2351.25 1455.41L2342.55 1454.36C2339.9 1449.07 2353.8 1374.32 2356.26 1361.97Z"/>
    <path fill="#3A629F" d="M1365.6 1568.29L1373.16 1578.58C1352.42 1593.52 1325.61 1614.06 1304.75 1627.99L1307.41 1608.54C1316.54 1606.17 1355.19 1575.43 1365.6 1568.29Z"/>
    <path fill="#3A629F" d="M972.553 1842.59L982.669 1850.04C976.893 1857.82 971.245 1866.14 965.684 1874.12C959.77 1870.32 959.416 1871.47 957.218 1866.2C959.092 1857.8 966.86 1849.91 972.553 1842.59Z"/>
    <path fill="#030000" d="M1842.75 1726.6C1844.63 1724.79 1850.23 1720.66 1852.56 1718.85L1864.1 1734.92C1861.49 1737.46 1857.26 1741.34 1854.93 1743.91L1842.75 1726.6Z"/>
</svg>